<svg xmlns="http://www.w3.org/2000/svg" viewBox="0 0 320 320"><defs><linearGradient id="g" x1="0" y1="0" x2="0" y2="1"><stop offset="0" stop-color="#e8c97a"/><stop offset="1" stop-color="#c9a84c"/></linearGradient></defs><rect x="0" y="0" width="320" height="320" fill="#141417"/><polygon points="160,46 254,100 254,208 160,262 66,208 66,100" fill="none" stroke="url(#g)" stroke-width="7" stroke-linejoin="round"/><polygon points="160,70 233,112 233,196 160,238 87,196 87,112" fill="none" stroke="#c9a84c" stroke-width="2" opacity="0.45"/><path d="M160 96 C188 138 206 162 206 190 a46 46 0 0 1 -92 0 C114 162 132 138 160 96 Z" fill="url(#g)"/><path d="M141 184 a21 27 0 0 0 15 32" fill="none" stroke="#fff3d6" stroke-width="7" stroke-linecap="round" opacity="0.65"/></svg>