<svg xmlns="http://www.w3.org/2000/svg" viewBox="0 0 320 320"><defs><linearGradient id="g" x1="0" y1="0" x2="0" y2="1"><stop offset="0" stop-color="#a3d17e"/><stop offset="1" stop-color="#7cb350"/></linearGradient></defs><rect x="10" y="10" width="300" height="300" rx="66" fill="#141417" stroke="#2a2a35" stroke-width="4"/><polygon points="160,46 254,100 254,208 160,262 66,208 66,100" fill="none" stroke="url(#g)" stroke-width="7" stroke-linejoin="round"/><polygon points="160,70 233,112 233,196 160,238 87,196 87,112" fill="none" stroke="#7cb350" stroke-width="2" opacity="0.45"/><path d="M160 128 C152 112 132 100 112 112 C88 126 84 158 100 182 C116 206 140 224 160 238 C180 224 204 206 220 182 C236 158 232 126 208 112 C188 100 168 112 160 128 Z" fill="url(#g)"/><path d="M160 128 C160 116 164 104 176 96" fill="none" stroke="#5c4a30" stroke-width="6" stroke-linecap="round"/><path d="M172 100 C182 92 197 94 201 104 C193 111 178 109 172 100 Z" fill="#c1502f" opacity="0.9"/><path d="M120 150 a14 18 0 0 0 10 22" fill="none" stroke="#eaf7dc" stroke-width="6" stroke-linecap="round" opacity="0.6"/></svg>
